<svg xmlns="http://www.w3.org/2000/svg" version="1.1" xmlns:xlink="http://www.w3.org/1999/xlink" xmlns:svgjs="http://svgjs.dev/svgjs" viewBox="0 0 800 800"><defs><linearGradient x1="50%" y1="0%" x2="50%" y2="100%" id="ffflurry-grad" gradientTransform="rotate(270)"><stop stop-color="hsl(238, 82%, 13%)" stop-opacity="1" offset="0%"></stop><stop stop-color="hsl(1.4, 100%, 67%)" stop-opacity="1" offset="45%"></stop><stop stop-color="hsl(167, 52%, 78%)" stop-opacity="1" offset="100%"></stop></linearGradient></defs><rect width="100%" height="100%" fill="hsl(238, 82%, 13%)"></rect><g fill="url(#ffflurry-grad)"><rect width="88" height="3" x="447" y="728.5" rx="1.5" transform="rotate(45, 491, 730)" opacity="0.61"></rect><rect width="303" height="3" x="21.5" y="639.5" rx="1.5" transform="rotate(45, 173, 641)" opacity="0.74"></rect><rect width="205" height="3" x="489.5" y="41.5" rx="1.5" transform="rotate(45, 592, 43)" opacity="0.62"></rect><rect width="196" height="3" x="44" y="559.5" rx="1.5" transform="rotate(45, 142, 561)" opacity="0.80"></rect><rect width="630" height="3" x="132" y="278.5" rx="1.5" transform="rotate(45, 447, 280)" opacity="0.18"></rect><rect width="763" height="3" x="-120.5" y="56.5" rx="1.5" transform="rotate(45, 261, 58)" opacity="0.47"></rect><rect width="69" height="3" x="310.5" y="581.5" rx="1.5" transform="rotate(45, 345, 583)" opacity="0.82"></rect><rect width="107" height="3" x="545.5" y="756.5" rx="1.5" transform="rotate(45, 599, 758)" opacity="0.54"></rect><rect width="487" height="3" x="199.5" y="611.5" rx="1.5" transform="rotate(45, 443, 613)" opacity="0.63"></rect><rect width="114" height="3" x="267" y="762.5" rx="1.5" transform="rotate(45, 324, 764)" opacity="0.76"></rect><rect width="404" height="3" x="500" y="349.5" rx="1.5" transform="rotate(45, 702, 351)" opacity="0.48"></rect><rect width="307" height="3" x="621.5" y="239.5" rx="1.5" transform="rotate(45, 775, 241)" opacity="0.54"></rect><rect width="282" height="3" x="213" y="161.5" rx="1.5" transform="rotate(45, 354, 163)" opacity="0.42"></rect><rect width="54" height="3" x="752" y="169.5" rx="1.5" transform="rotate(45, 779, 171)" opacity="0.95"></rect><rect width="60" height="3" x="91" y="37.5" rx="1.5" transform="rotate(45, 121, 39)" opacity="0.90"></rect><rect width="324" height="3" x="17" y="364.5" rx="1.5" transform="rotate(45, 179, 366)" opacity="0.76"></rect><rect width="139" height="3" x="143.5" y="563.5" rx="1.5" transform="rotate(45, 213, 565)" opacity="0.24"></rect><rect width="48" height="3" x="727" y="103.5" rx="1.5" transform="rotate(45, 751, 105)" opacity="0.96"></rect><rect width="206" height="3" x="-64" y="399.5" rx="1.5" transform="rotate(45, 39, 401)" opacity="0.95"></rect><rect width="547" height="3" x="210.5" y="53.5" rx="1.5" transform="rotate(45, 484, 55)" opacity="0.48"></rect><rect width="201" height="3" x="651.5" y="622.5" rx="1.5" transform="rotate(45, 752, 624)" opacity="0.16"></rect><rect width="651" height="3" x="204.5" y="301.5" rx="1.5" transform="rotate(45, 530, 303)" opacity="0.47"></rect><rect width="77" height="3" x="629.5" y="162.5" rx="1.5" transform="rotate(45, 668, 164)" opacity="0.80"></rect><rect width="401" height="3" x="210.5" y="717.5" rx="1.5" transform="rotate(45, 411, 719)" opacity="0.56"></rect><rect width="451" height="3" x="-131.5" y="327.5" rx="1.5" transform="rotate(45, 94, 329)" opacity="0.20"></rect><rect width="287" height="3" x="233.5" y="55.5" rx="1.5" transform="rotate(45, 377, 57)" opacity="0.37"></rect><rect width="349" height="3" x="183.5" y="267.5" rx="1.5" transform="rotate(45, 358, 269)" opacity="0.81"></rect><rect width="99" height="3" x="-23.5" y="613.5" rx="1.5" transform="rotate(45, 26, 615)" opacity="0.84"></rect><rect width="255" height="3" x="343.5" y="166.5" rx="1.5" transform="rotate(45, 471, 168)" opacity="0.86"></rect><rect width="300" height="3" x="436" y="654.5" rx="1.5" transform="rotate(45, 586, 656)" opacity="0.66"></rect><rect width="710" height="3" x="-310" y="106.5" rx="1.5" transform="rotate(45, 45, 108)" opacity="0.72"></rect><rect width="71" height="3" x="45.5" y="569.5" rx="1.5" transform="rotate(45, 81, 571)" opacity="0.40"></rect><rect width="163" height="3" x="688.5" y="317.5" rx="1.5" transform="rotate(45, 770, 319)" opacity="0.61"></rect><rect width="130" height="3" x="108" y="273.5" rx="1.5" transform="rotate(45, 173, 275)" opacity="0.59"></rect><rect width="105" height="3" x="188.5" y="500.5" rx="1.5" transform="rotate(45, 241, 502)" opacity="0.39"></rect><rect width="458" height="3" x="535" y="412.5" rx="1.5" transform="rotate(45, 764, 414)" opacity="0.95"></rect><rect width="668" height="3" x="333" y="418.5" rx="1.5" transform="rotate(45, 667, 420)" opacity="0.95"></rect><rect width="439" height="3" x="72.5" y="447.5" rx="1.5" transform="rotate(45, 292, 449)" opacity="0.52"></rect><rect width="321" height="3" x="-51.5" y="500.5" rx="1.5" transform="rotate(45, 109, 502)" opacity="0.90"></rect><rect width="246" height="3" x="492" y="318.5" rx="1.5" transform="rotate(45, 615, 320)" opacity="0.42"></rect><rect width="139" height="3" x="369.5" y="380.5" rx="1.5" transform="rotate(45, 439, 382)" opacity="0.50"></rect><rect width="319" height="3" x="-126.5" y="256.5" rx="1.5" transform="rotate(45, 33, 258)" opacity="0.15"></rect><rect width="156" height="3" x="166" y="260.5" rx="1.5" transform="rotate(45, 244, 262)" opacity="0.96"></rect><rect width="455" height="3" x="433.5" y="560.5" rx="1.5" transform="rotate(45, 661, 562)" opacity="0.09"></rect><rect width="522" height="3" x="-165" y="652.5" rx="1.5" transform="rotate(45, 96, 654)" opacity="0.11"></rect><rect width="123" height="3" x="169.5" y="416.5" rx="1.5" transform="rotate(45, 231, 418)" opacity="0.87"></rect><rect width="76" height="3" x="652" y="299.5" rx="1.5" transform="rotate(45, 690, 301)" opacity="0.10"></rect><rect width="216" height="3" x="244" y="400.5" rx="1.5" transform="rotate(45, 352, 402)" opacity="0.93"></rect><rect width="370" height="3" x="175" y="475.5" rx="1.5" transform="rotate(45, 360, 477)" opacity="0.33"></rect><rect width="264" height="3" x="253" y="772.5" rx="1.5" transform="rotate(45, 385, 774)" opacity="0.76"></rect><rect width="343" height="3" x="114.5" y="604.5" rx="1.5" transform="rotate(45, 286, 606)" opacity="0.09"></rect><rect width="494" height="3" x="156" y="519.5" rx="1.5" transform="rotate(45, 403, 521)" opacity="0.57"></rect><rect width="214" height="3" x="185" y="337.5" rx="1.5" transform="rotate(45, 292, 339)" opacity="0.14"></rect><rect width="182" height="3" x="-35" y="741.5" rx="1.5" transform="rotate(45, 56, 743)" opacity="0.41"></rect><rect width="519" height="3" x="66.5" y="678.5" rx="1.5" transform="rotate(45, 326, 680)" opacity="0.95"></rect><rect width="143" height="3" x="-36.5" y="501.5" rx="1.5" transform="rotate(45, 35, 503)" opacity="0.75"></rect><rect width="218" height="3" x="460" y="420.5" rx="1.5" transform="rotate(45, 569, 422)" opacity="0.77"></rect><rect width="596" height="3" x="-41" y="752.5" rx="1.5" transform="rotate(45, 257, 754)" opacity="0.19"></rect><rect width="91" height="3" x="193.5" y="643.5" rx="1.5" transform="rotate(45, 239, 645)" opacity="0.64"></rect><rect width="187" height="3" x="566.5" y="250.5" rx="1.5" transform="rotate(45, 660, 252)" opacity="0.60"></rect><rect width="417" height="3" x="-25.5" y="489.5" rx="1.5" transform="rotate(45, 183, 491)" opacity="0.16"></rect><rect width="74" height="3" x="136" y="739.5" rx="1.5" transform="rotate(45, 173, 741)" opacity="0.49"></rect><rect width="50" height="3" x="238" y="178.5" rx="1.5" transform="rotate(45, 263, 180)" opacity="0.96"></rect><rect width="104" height="3" x="529" y="214.5" rx="1.5" transform="rotate(45, 581, 216)" opacity="0.33"></rect><rect width="328" height="3" x="560" y="733.5" rx="1.5" transform="rotate(45, 724, 735)" opacity="0.17"></rect><rect width="288" height="3" x="-34" y="211.5" rx="1.5" transform="rotate(45, 110, 213)" opacity="0.70"></rect><rect width="245" height="3" x="597.5" y="38.5" rx="1.5" transform="rotate(45, 720, 40)" opacity="0.61"></rect><rect width="253" height="3" x="583.5" y="221.5" rx="1.5" transform="rotate(45, 710, 223)" opacity="0.92"></rect><rect width="295" height="3" x="582.5" y="173.5" rx="1.5" transform="rotate(45, 730, 175)" opacity="0.36"></rect><rect width="751" height="3" x="105.5" y="485.5" rx="1.5" transform="rotate(45, 481, 487)" opacity="0.70"></rect><rect width="126" height="3" x="230" y="522.5" rx="1.5" transform="rotate(45, 293, 524)" opacity="0.29"></rect><rect width="342" height="3" x="391" y="547.5" rx="1.5" transform="rotate(45, 562, 549)" opacity="0.31"></rect><rect width="111" height="3" x="675.5" y="269.5" rx="1.5" transform="rotate(45, 731, 271)" opacity="0.66"></rect><rect width="775" height="3" x="-215.5" y="134.5" rx="1.5" transform="rotate(45, 172, 136)" opacity="0.28"></rect><rect width="169" height="3" x="37.5" y="433.5" rx="1.5" transform="rotate(45, 122, 435)" opacity="0.18"></rect><rect width="337" height="3" x="431.5" y="122.5" rx="1.5" transform="rotate(45, 600, 124)" opacity="0.91"></rect><rect width="411" height="3" x="532.5" y="502.5" rx="1.5" transform="rotate(45, 738, 504)" opacity="0.13"></rect></g></svg>