<svg xmlns="http://www.w3.org/2000/svg" version="1.1" xmlns:xlink="http://www.w3.org/1999/xlink" xmlns:svgjs="http://svgjs.dev/svgjs" viewBox="0 0 800 800"><defs><linearGradient x1="50%" y1="0%" x2="50%" y2="100%" id="vvvortex-grad"><stop stop-color="hsl(1.4, 100%, 67%)" stop-opacity="1" offset="0%"></stop><stop stop-color="hsl(167, 52%, 78%)" stop-opacity="1" offset="100%"></stop></linearGradient></defs><g stroke="url(#vvvortex-grad)" fill="none" stroke-linecap="round"><circle r="363" cx="400" cy="400" stroke-width="11" stroke-dasharray="21 11" stroke-dashoffset="25" transform="rotate(296, 400, 400)" opacity="0.05"></circle><circle r="346.5" cx="400" cy="400" stroke-width="11" stroke-dasharray="32 22" stroke-dashoffset="25" transform="rotate(219, 400, 400)" opacity="0.10"></circle><circle r="330" cx="400" cy="400" stroke-width="10" stroke-dasharray="51 16" stroke-dashoffset="25" transform="rotate(123, 400, 400)" opacity="0.14"></circle><circle r="313.5" cx="400" cy="400" stroke-width="10" stroke-dasharray="43 35" stroke-dashoffset="25" transform="rotate(294, 400, 400)" opacity="0.19"></circle><circle r="297" cx="400" cy="400" stroke-width="10" stroke-dasharray="48 33" stroke-dashoffset="25" transform="rotate(200, 400, 400)" opacity="0.23"></circle><circle r="280.5" cx="400" cy="400" stroke-width="10" stroke-dasharray="52 32" stroke-dashoffset="25" transform="rotate(258, 400, 400)" opacity="0.28"></circle><circle r="264" cx="400" cy="400" stroke-width="9" stroke-dasharray="11 39" stroke-dashoffset="25" transform="rotate(173, 400, 400)" opacity="0.32"></circle><circle r="247.5" cx="400" cy="400" stroke-width="9" stroke-dasharray="44 43" stroke-dashoffset="25" transform="rotate(128, 400, 400)" opacity="0.37"></circle><circle r="231" cx="400" cy="400" stroke-width="9" stroke-dasharray="50 30" stroke-dashoffset="25" transform="rotate(93, 400, 400)" opacity="0.41"></circle><circle r="214.5" cx="400" cy="400" stroke-width="8" stroke-dasharray="28 22" stroke-dashoffset="25" transform="rotate(18, 400, 400)" opacity="0.46"></circle><circle r="198" cx="400" cy="400" stroke-width="8" stroke-dasharray="30 49" stroke-dashoffset="25" transform="rotate(195, 400, 400)" opacity="0.50"></circle><circle r="181.5" cx="400" cy="400" stroke-width="8" stroke-dasharray="18 38" stroke-dashoffset="25" transform="rotate(296, 400, 400)" opacity="0.55"></circle><circle r="165" cx="400" cy="400" stroke-width="8" stroke-dasharray="22 40" stroke-dashoffset="25" transform="rotate(285, 400, 400)" opacity="0.59"></circle><circle r="148.5" cx="400" cy="400" stroke-width="7" stroke-dasharray="10 53" stroke-dashoffset="25" transform="rotate(119, 400, 400)" opacity="0.64"></circle><circle r="132" cx="400" cy="400" stroke-width="7" stroke-dasharray="21 13" stroke-dashoffset="25" transform="rotate(271, 400, 400)" opacity="0.68"></circle><circle r="115.5" cx="400" cy="400" stroke-width="7" stroke-dasharray="54 39" stroke-dashoffset="25" transform="rotate(223, 400, 400)" opacity="0.73"></circle><circle r="99" cx="400" cy="400" stroke-width="6" stroke-dasharray="27 25" stroke-dashoffset="25" transform="rotate(113, 400, 400)" opacity="0.77"></circle><circle r="82.5" cx="400" cy="400" stroke-width="6" stroke-dasharray="54 38" stroke-dashoffset="25" transform="rotate(21, 400, 400)" opacity="0.82"></circle><circle r="66" cx="400" cy="400" stroke-width="6" stroke-dasharray="27 16" stroke-dashoffset="25" transform="rotate(166, 400, 400)" opacity="0.86"></circle><circle r="49.5" cx="400" cy="400" stroke-width="6" stroke-dasharray="49 46" stroke-dashoffset="25" transform="rotate(311, 400, 400)" opacity="0.91"></circle><circle r="33" cx="400" cy="400" stroke-width="5" stroke-dasharray="48 46" stroke-dashoffset="25" transform="rotate(124, 400, 400)" opacity="0.95"></circle><circle r="16.5" cx="400" cy="400" stroke-width="5" stroke-dasharray="12 47" stroke-dashoffset="25" transform="rotate(256, 400, 400)" opacity="1.00"></circle></g></svg>